P2
18 2
255
122 122 146 146 78 78 0 0 196 196
249 249 87 87 105 105 255 255 122 122
146 146 78 78 0 0 196 196 249 249
87 87 105 105 255 255 
