P2
18 2
255
44 44 53 53 255 255 62 62 213 213
20 20 79 79 21 21 0 0 44 44
53 53 255 255 62 62 213 213 20 20
79 79 21 21 0 0 
