P2
18 2
255
24 24 147 147 57 57 254 254 36 36
0 0 22 22 34 34 67 67 24 24
147 147 57 57 254 254 36 36 0 0
22 22 34 34 67 67 
