P2
18 2
255
126 126 54 54 47 47 97 97 0 0
132 132 232 232 255 255 62 62 126 126
54 54 47 47 97 97 0 0 132 132
232 232 255 255 62 62 
